<svg width="1512" height="981" viewBox="0 0 1512 981" fill="none" xmlns="http://www.w3.org/2000/svg">
<path d="M302.5 873C505.333 728.833 1029.7 422.9 1512.5 346.5" stroke="#A5A5A5"/>
<path d="M350 897C524.758 801.256 1000.22 641.184 1512 762.859" stroke="#A5A5A5"/>
<path d="M384 911.5C517.333 870.5 845.5 826 1111.5 980" stroke="#A5A5A5"/>
<path d="M405 919.269C461.167 917.294 578.4 925.095 648 980" stroke="#A5A5A5"/>
<path d="M113.5 718.5C99.375 715.934 56.5 714.837 0 731" stroke="#A5A5A5"/>
<path d="M66.5 585C54.6667 559.5 27.2 509 0 487" stroke="#A5A5A5"/>
<path d="M109.5 635.5C110.833 555.667 90.8 358.8 0 206" stroke="#A5A5A5"/>
<path d="M105.5 709C114.667 688.333 146.7 646.5 203.5 638.5C260.3 630.5 304.833 648.167 320 658C353.333 676.167 421.6 727.6 428 788C436 863.5 405 896.5 383.5 911" stroke="#A5A5A5"/>
<path d="M95 696C94 669.167 107.4 608 171 570C250.5 522.5 343.5 557.5 379 573C414.5 588.5 498.5 645 514 738C529.5 831 486 910.5 385 911.5" stroke="#A5A5A5"/>
<path d="M133.5 741C157 730.833 214.6 717.6 263 742C323.5 772.5 356 818 342.5 893.5" stroke="#A5A5A5"/>
<path d="M94.5 694C86.1667 616 116 460.4 304 454C539 446 798 835 401 918" stroke="#A5A5A5"/>
<path d="M95 694C83 589.5 113.6 376.8 332 362C605 343.5 848 707 581 876C550.667 894.333 474.8 927.2 402 918" stroke="#A5A5A5"/>
<path d="M95 694.5C41 564.167 18.2 296 359 266C473.667 266.167 718.6 332 781 594C795.333 657.833 790.1 803 654.5 873C627.333 891.5 540.3 925.7 403.5 918.5" stroke="#A5A5A5"/>
<path d="M95 695.5C30.6667 603.667 -41.1 383.5 190.5 239.5C285.667 188.167 531.6 147.4 754 381C802.667 433 886.8 577.8 834 741C768 945 466 947 403 918.5" stroke="#A5A5A5"/>
<path d="M58 627C8.5 537.833 -32.9 331.9 183.5 179.5C454 -11 896 269 918 531C944.833 666.333 921.3 936.9 546.5 934.5" stroke="#A5A5A5"/>
<path d="M59.5 629.5C-1.66668 523.833 -63.6 277.5 178 115.5C480 -86.9998 952.5 210 987.5 498.5C1014.33 681 933 1018.7 425 925.5" stroke="#A5A5A5"/>
<path d="M0.5 752C47 805.667 166.2 924.4 289 980" stroke="#A5A5A5"/>
<path d="M0 882C16.5685 897.833 61.5544 937.6 121 980" stroke="#A5A5A5"/>
<path d="M1368 0C1406.5 53.3333 1489.3 190.3 1512.5 311.5" stroke="#A5A5A5"/>
<path d="M1311 980C1365.43 935.19 1482.03 809.656 1513 666" stroke="#A5A5A5"/>
<path d="M422 0C391.455 160.65 298.291 540.959 170 777" stroke="#A5A5A5"/>
<path d="M158.083 -1C187.757 116.175 224.283 428.121 133 740.5" stroke="#A5A5A5"/>
<path d="M739 0C625 189 360.4 615.4 212 813" stroke="#A5A5A5"/>
<path d="M1226 -2C1021.88 155.627 541.704 545.305 254 843" stroke="#A5A5A5"/>
<path d="M305.5 -1C227.333 12.3333 56.8 82.4 0 256" stroke="#A5A5A5"/>
<path d="M103.5 -2C74.8333 21.6667 13.8 78.9 -1 118.5" stroke="#A5A5A5"/>
<path d="M12 -0.5L-0.5 15" stroke="#A5A5A5"/>
<path d="M-1 591C54.8333 704.521 245.2 939.652 580 980" stroke="#A5A5A5"/>
<path d="M0 625C51.0578 713.542 213.944 907.302 469 980" stroke="#A5A5A5"/>
<path d="M-0.5 694C42.6667 754 175 893.2 369 980" stroke="#A5A5A5"/>
<path d="M0 815C45 856.667 148.4 946.8 208 980" stroke="#A5A5A5"/>
<path d="M-0.5 954.5C4 959 14.4 968.3 30 979.5" stroke="#A5A5A5"/>
<path d="M709 980C883.23 963.184 1211.48 833.349 1142.66 442.547C1127.32 346.312 1039.32 122.673 810.037 -2" stroke="#A5A5A5"/>
<path d="M986.055 -2C1056.47 56.7436 1205.24 221.459 1237.05 410.37C1276.81 646.509 1186.85 866.174 912 980" stroke="#A5A5A5"/>
<path d="M1123.24 -2C1308.12 190.872 1556.1 655.296 1063 980" stroke="#A5A5A5"/>
<path d="M1252.73 0C1411.08 190.944 1620.23 653.466 1188 980" stroke="#A5A5A5"/>
<path d="M1473 -0.5C1485.17 18.1667 1510.2 57.6 1513 66" stroke="#A5A5A5"/>
<path d="M1515 876C1493.05 904.349 1444.91 964.837 1428 980" stroke="#A5A5A5"/>
<mask id="mask0_10_24" style="mask-type:alpha" maskUnits="userSpaceOnUse" x="0" y="2" width="1067" height="965">
<path d="M623.5 965.5C231.1 940.3 45.6667 663.333 2 528L902.284 196C996.526 295.648 1043.91 407.29 1058.5 476C1114.9 867.2 792 965.333 623.5 965.5Z" fill="#D9D9D9"/>
<path d="M558 3C711.256 37.3001 823.249 112.432 902.284 196M902.284 196C996.526 295.648 1043.91 407.29 1058.5 476C1114.9 867.2 792 965.333 623.5 965.5C231.1 940.3 45.6667 663.333 2 528L902.284 196Z" stroke="white" stroke-width="2"/>
</mask>
<g mask="url(#mask0_10_24)">
<ellipse cx="260.5" cy="770.601" rx="179.84" ry="99.8811" transform="rotate(31.6661 260.5 770.601)" fill="url(#paint0_linear_10_24)"/>
</g>
<path d="M0 526C43.6667 661.333 229.1 938.3 621.5 963.5C790 963.333 1112.9 865.2 1056.5 474C1029.67 347.667 892 76.2 556 1" stroke="#A5A5A5"/>
<path d="M334 889C337.773 901.133 343.055 936.32 334 980" stroke="#A5A5A5"/>
<line x1="-0.00146484" y1="980" x2="1512" y2="980" stroke="#A5A5A5"/>
<defs>
<linearGradient id="paint0_linear_10_24" x1="260.5" y1="670.72" x2="260.5" y2="870.482" gradientUnits="userSpaceOnUse">
<stop stop-opacity="0"/>
<stop offset="0.682292"/>
</linearGradient>
</defs>
</svg>
